<?xml version="1.0" encoding="UTF-8"?>
<svg xmlns="http://www.w3.org/2000/svg" xmlns:xlink="http://www.w3.org/1999/xlink" width="480pt" height="480pt" viewBox="0 0 480 480" version="1.1">
<g id="surface1">
<path style=" stroke:none;fill-rule:nonzero;fill:#DADBBD;fill-opacity:1;" d="M 236.84375 47.367188 C 132.175781 47.367188 47.367188 132.175781 47.367188 236.84375 C 47.367188 341.507813 132.175781 426.316406 236.84375 426.316406 C 341.507813 426.316406 426.316406 341.507813 426.316406 236.84375 C 426.316406 132.175781 341.507813 47.367188 236.84375 47.367188 Z M 126.316406 349.589844 C 144.757813 294.324219 200.019531 315.914063 209.210938 285.9375 L 209.210938 266.015625 C 205.078125 263.796875 193.234375 248.5 191.941406 236.535156 C 188.671875 236.285156 183.613281 233.019531 182.074219 220.25 C 181.269531 213.34375 184.476563 209.519531 186.453125 208.285156 C 186.453125 208.285156 181.578125 197.183594 181.578125 186.203125 C 181.578125 153.453125 197.800781 126.316406 236.84375 126.316406 C 257.9375 126.316406 264.472656 141.242188 264.472656 141.242188 C 283.347656 141.242188 292.105469 161.964844 292.105469 186.144531 C 292.105469 198.230469 287.234375 208.285156 287.234375 208.285156 C 289.207031 209.457031 292.414063 213.34375 291.613281 220.1875 C 290.070313 233.019531 285.011719 236.285156 281.742188 236.535156 C 280.449219 248.5 268.605469 263.734375 264.472656 266.015625 L 264.472656 285.9375 C 273.664063 315.914063 328.925781 294.324219 347.367188 349.589844 C 347.367188 349.589844 306.042969 394.738281 236.84375 394.738281 C 167.269531 394.738281 126.316406 349.589844 126.316406 349.589844 Z "/>
</g>
</svg>
